<?xml version="1.0" encoding="utf-8"?>
<!-- Generator: Adobe Illustrator 19.0.0, SVG Export Plug-In . SVG Version: 6.00 Build 0)  -->
<svg version="1.1" id="Layer_1" xmlns="http://www.w3.org/2000/svg" xmlns:xlink="http://www.w3.org/1999/xlink" x="0px" y="0px"
	 viewBox="-373.4 321.1 400.8 151.7" style="enable-background:new -373.4 321.1 400.8 151.7;" xml:space="preserve">
<style type="text/css">
	.st0{fill:#1361A2;}
	.st1{fill:#E1001E;}
	.st2{fill:#FFFFFF;}
	.st3{fill:#008AD8;}
	.st4{fill:#FFA600;}
</style>
<g transform="translate(0 -124.315)">
	<rect x="-122.4" y="445.4" class="st0" width="149.8" height="151.7"/>
	<rect x="-373.4" y="445.4" class="st0" width="247.2" height="151.7"/>
	<path class="st1" d="M19,445.4l-57.2,74.9h8.6l57-74.9L19,445.4z"/>
	<path class="st2" d="M-7.9,553.8c2.6,7.4,8,26.6,10.1,28.2h-14.1c0-1.7-0.3-3.4-0.7-5.1c-0.6-2.2-5.7-18.8-5.7-18.8h-22.4l-3.5,5.1
		c0,0,4.2,13.4,4.5,14.1c0.5,1.2,2.5,4.8,2.5,4.8h-13.5c0,0-0.3-2.1-0.5-2.9c-0.1-0.7-1.3-4.5-1.3-4.5c-1.4,1.6-2.7,3.2-3.9,5
		c-0.9,1.6-1.2,2.4-1.2,2.4h-10.6c0,0-0.4-2.1-0.5-2.9c-0.1-0.7-1.4-4.8-1.4-4.8c-1.4,1.7-2.7,3.4-3.8,5.2c-0.4,0.8-0.8,1.6-1.2,2.5
		h-10.5c0,0,3-2.9,4-4.1c1.8-2.1,8.3-10.7,8.3-10.7l-2.6-9.1h-22.3c0,0-12.7,16.9-13.2,17.4c-1.6,2-3,4.2-4.3,6.5h-6.6v-4.3
		c0.2-0.1,0.2-0.2,0.3-0.3c0.2-0.1,9.6-12,18.3-23.7c7.8-10.2,15.1-20.1,15.7-21c1.4-2.3,2.7-4.7,3.8-7.2h11.5
		c0.1,1.9,0.4,3.8,0.7,5.6c0.3,1,7.3,24.3,7.5,24.5l3.9-5l-6.6-20.7c-0.6-1.5-1.3-3-2.1-4.5H-56c-0.1,1.2,0.1,2.5,0.4,3.7
		c0.5,1.7,3.4,12.3,3.4,12.3s9.2-11.7,9.7-12.5c0.7-1,1-2.2,1.1-3.4h11.2c-2.1,1.8-4,3.9-5.6,6.1l-13,16.8c0,0,1,3.6,1.6,5.3
		c0.1,0.5,0.2,0.9,0.2,0.9s0.3-0.3,0.7-0.9c3.1-3.9,17-22.4,17.8-23.9c0.9-1.4,1.6-2.8,2.3-4.3h10.9c0.1,1.4,0.3,2.8,0.6,4.2
		L-7.9,553.8z M-24.5,536.4c-3.4,5.3-7.1,10.3-11.1,15.1h15c0,0-2.9-9-3.4-11.1c-0.2-1.3-0.3-2.6-0.3-4
		C-24.3,536.3-24.4,536-24.5,536.4 M-82,536.4c-3.4,5.3-7.1,10.3-11.1,15.1h15c0,0-2.9-9-3.4-11.1c-0.3-1.3-0.4-2.6-0.3-4
		C-81.8,536.3-81.9,536-82,536.4 M-59.5,571.7l4.1-5.7c-0.4-0.4-2.7-7.5-2.7-7.5l-4,5.2L-59.5,571.7z"/>
	<rect x="-340.5" y="525.8" class="st2" width="8.5" height="56.7"/>
	<rect x="-299.2" y="525.8" class="st2" width="8.5" height="56.7"/>
	<rect x="-222.9" y="547.2" class="st2" width="8.5" height="35.3"/>
	<rect x="-173.5" y="547.2" class="st2" width="8.5" height="35.3"/>
	<path class="st2" d="M-329.4,550c0,0,10.1-7.2,18.7-0.5c1.7,1.5,3.1,3.4,3.9,5.5c1.6,4.7,2,9.8,1,14.8
		c-2.1,12.2-10.5,13.8-16.4,12.7c-5.9-1.2-7.4-3.4-7.4-3.4c3,0.3,6.1,0,9-0.8c4.3-1.4,5.2-3.6,5.9-8.1c0.7-4.5,0.6-14.3-2.3-17.2
		c-2.9-3-12.3-2.6-12.3-2.6S-329.7,550.1-329.4,550"/>
	<path class="st2" d="M-288.1,549.8c0,0,9.3-6.5,18.1-1.1c2.9,1.8,3.9,6.6,4,10.2l0,23.4l-8.5,0.1l-0.1-24.5c0,0,0.1-6.1-5.2-7.2
		c-2.7-0.6-5.5-0.8-8.2-0.5C-288,550.3-288.3,550-288.1,549.8"/>
	<path class="st2" d="M-255,550c0,0,10.4-6.3,19.8-1.2c3.1,2.4,4.7,6.3,4.3,10.2l0,23.4l-8.6,0.1l-0.1-24.5
		c-0.1-3.6-2.8-6.6-6.3-7.2c-3-0.6-6.1-0.7-9.2-0.3C-254.9,550.4-255.2,550.1-255,550"/>
	<path class="st2" d="M-212.8,554.7c1.8-4.5,5.9-7.6,10.8-8v8H-212.8z"/>
	<path class="st2" d="M-188.6,537.1v10.1h9.6v3.8h-9.7v21.8c0,0-0.2,6.1,5,5.7c5.2-0.4,5,0.1,5,0.1c0.1,0.3-0.1,0.6-0.3,0.8
		c-3.3,2.9-7.8,4-12,2.9c-1.8-0.5-3.4-1.6-4.6-3c-1-1.9-1.6-4.1-1.7-6.3c0-0.2,0-31.5,0-31.5l7.5-4.3L-188.6,537.1z"/>
	<path class="st2" d="M-249.7,565.7c0.4-0.3,0.8-0.6,1.2-0.8c1.9-0.7,3.9-0.9,5.9-0.5c0,0,1.2,0,0.4-0.6c-2.1-1.6-4.6-2.6-7.2-2.7
		c-5.5-0.4-10.3,3.6-10.9,9.1c-0.1,2.2,0.3,4.4,1,6.5c1,3.3,4,5.6,7.4,5.9c6.3,0.5,9.8-2.3,9.8-2.7c0-0.4-0.2-0.4-0.4-0.4
		c-0.2,0-7.3,0.9-8.5-3.2c-0.7-2.6-0.8-5.2-0.3-7.8C-251,567.4-250.4,566.5-249.7,565.7"/>
	<path class="st3" d="M-173.5,525.4h8.6l-8.5,9.9L-173.5,525.4z"/>
	<path class="st4" d="M-156.6,531.5v15.4l-13.3-15.4L-156.6,531.5z"/>
</g>
</svg>
